# xmcd
#
# Track frame offsets: 
#        150
#        8427
#        21275
#        33123
#        43672
#        54973
#        66473
#        75685
#        94506
#        104122
#
# Disc length: 1475 seconds
#
# Revision: 0
# Processed by: cddbd v1.5.1PL0 Copyright (c) Steve Scherf et al.
# Submitted via: ExactAudioCopy v0.95a5
#
DISCID=7405c10a
DTITLE=Touchdowns - My Wonderful High School Life
DYEAR=1900
DGENRE=Acid
TTITLE0=Get Rocked
TTITLE1=I.H.S.
TTITLE2=Pop in a Record
TTITLE3=Drunk and Loaded
TTITLE4=Goodbye Iola, KS
TTITLE5=Cowboys
TTITLE6=Exercise
TTITLE7=High School
TTITLE8=Dancin' Tim
TTITLE9=Rap 1st Cut
EXTD=
EXTT0=
EXTT1=
EXTT2=
EXTT3=
EXTT4=
EXTT5=
EXTT6=
EXTT7=
EXTT8=
EXTT9=
PLAYORDER=
